<svg xmlns="http://www.w3.org/2000/svg" xmlns:xlink="http://www.w3.org/1999/xlink" viewBox="0,0,256,256" width="100px" height="100px"><g fill="#c50fcf" fill-rule="nonzero" stroke="none" stroke-width="1" stroke-linecap="butt" stroke-linejoin="miter" stroke-miterlimit="10" stroke-dasharray="" stroke-dashoffset="0" font-family="none" font-weight="none" font-size="none" text-anchor="none" style="mix-blend-mode: normal"><g transform="scale(2.56,2.56)"><path d="M39.88281,13.66992c-7.27886,0.03766 -13.9623,2.42991 -18.87305,7.33984c-12.087,12.087 -8.91569,34.92416 7.07031,50.91016c9.44,9.44 21.26928,14.41016 31.86328,14.41016c7.346,0 14.09788,-2.39084 19.04688,-7.33984c12.087,-12.087 8.91469,-34.92416 -7.07031,-50.91016c-9.49109,-9.49169 -21.39878,-14.4652 -32.03711,-14.41016zM40.06836,15.64648c10.06,0 21.3795,4.78966 30.4375,13.84766c15.206,15.206 18.37731,36.77503 7.07031,48.08203c-11.306,11.308 -32.87503,8.13669 -48.08203,-7.07031c-15.206,-15.206 -18.37731,-36.77698 -7.07031,-48.08398c4.571,-4.571 10.81653,-6.77539 17.64453,-6.77539zM39.85742,18.48047c-6.294,0 -11.65305,2.03095 -15.49805,5.87695c-10.155,10.155 -6.91439,29.92055 7.22461,44.06055c8.204,8.205 18.88059,13.10156 28.55859,13.10156c6.294,0 11.654,-2.03295 15.5,-5.87695c10.155,-10.155 6.91439,-29.91859 -7.22461,-44.05859c-4.666,-4.666 -10.19433,-8.32689 -15.98633,-10.58789c-0.255,-0.102 -0.54744,0.0252 -0.64844,0.2832c-0.101,0.256 0.02816,0.54744 0.28516,0.64844c5.664,2.211 11.07258,5.79233 15.64258,10.36133c13.748,13.75 16.98961,32.88149 7.22461,42.64649c-3.654,3.653 -8.76802,5.58398 -14.79102,5.58398c-9.419,0 -19.83056,-4.78759 -27.85156,-12.80859c-13.748,-13.75 -16.99156,-32.88148 -7.22656,-42.64648c3.654,-3.653 8.76997,-5.58398 14.79297,-5.58398c1.511,0 3.0773,0.12505 4.6543,0.37305c0.28,0.042 0.52927,-0.14497 0.57227,-0.41797c0.042,-0.272 -0.14597,-0.52731 -0.41797,-0.57031c-1.629,-0.255 -3.24755,-0.38477 -4.81055,-0.38477zM48.47266,19.72461c-0.19289,0.02475 -0.36247,0.16303 -0.41797,0.36328c-0.074,0.265 0.08166,0.54123 0.34766,0.61523c0.329,0.092 0.65733,0.18806 0.98633,0.28906c0.049,0.015 0.09848,0.02148 0.14648,0.02148c0.214,0 0.41247,-0.13852 0.48047,-0.35352c0.081,-0.264 -0.06803,-0.54205 -0.33203,-0.62305c-0.338,-0.105 -0.67567,-0.20288 -1.01367,-0.29687c-0.06575,-0.01875 -0.13297,-0.02388 -0.19727,-0.01562zM42,35c-2.757,0 -5,2.243 -5,5c0,2.757 2.243,5 5,5h6.78711l-10.56445,11.63672c-1.714,1.888 -1.68273,4.82831 0.07227,6.69531c0.982,1.044 2.36708,1.66797 3.70508,1.66797h18c2.757,0 5,-2.243 5,-5c0,-2.757 -2.243,-5 -5,-5h-6.78516l10.56641,-11.63672c1.749,-1.927 1.68833,-4.90053 -0.13867,-6.76953c-0.991,-1.013 -2.31758,-1.59375 -3.64258,-1.59375zM42,36h18c1.042,0 2.13669,0.48297 2.92969,1.29297c1.458,1.491 1.50728,3.86244 0.11328,5.39844l-11.32617,12.47266c-0.133,0.146 -0.16789,0.35611 -0.08789,0.53711c0.08,0.182 0.25903,0.29883 0.45703,0.29883h7.91406c2.206,0 4,1.794 4,4c0,2.206 -1.794,4 -4,4h-18c-1.067,0 -2.18056,-0.50556 -2.97656,-1.35156c-1.4,-1.489 -1.42655,-3.83484 -0.06055,-5.33984l11.32422,-12.47266c0.133,-0.146 0.16594,-0.35611 0.08594,-0.53711c-0.08,-0.182 -0.25708,-0.29883 -0.45508,-0.29883h-7.91797c-2.206,0 -4,-1.794 -4,-4c0,-2.206 1.794,-4 4,-4z"></path></g></g></svg>